<svg width="28" height="38" viewBox="0 0 28 38" fill="none" xmlns="http://www.w3.org/2000/svg">
<path d="M12.5612 37.2333C1.96656 21.6 0 19.9955 0 14.25C0 6.37992 6.26799 0 14 0C21.732 0 28 6.37992 28 14.25C28 19.9955 26.0334 21.6 15.4388 37.2333C14.7435 38.2556 13.2564 38.2555 12.5612 37.2333ZM14 20.1875C17.2217 20.1875 19.8333 17.5292 19.8333 14.25C19.8333 10.9708 17.2217 8.3125 14 8.3125C10.7783 8.3125 8.16667 10.9708 8.16667 14.25C8.16667 17.5292 10.7783 20.1875 14 20.1875Z" fill="black"/>
</svg>
